<mxfile host="app.diagrams.net" modified="2020-12-26T08:42:09.119Z" agent="5.0 (Windows NT 10.0; Win64; x64) AppleWebKit/537.36 (KHTML, like Gecko) Chrome/87.0.4280.88 Safari/537.36" etag="1c37faf4W3POYEPjL-rx" version="14.1.2" type="github">
  <diagram id="tg6F6SowkcfOB_KH-uLR" name="Page-1">
    <mxGraphModel dx="768" dy="463" grid="1" gridSize="10" guides="1" tooltips="1" connect="1" arrows="1" fold="1" page="1" pageScale="1" pageWidth="827" pageHeight="1169" math="0" shadow="0">
      <root>
        <mxCell id="0" />
        <mxCell id="1" parent="0" />
        <mxCell id="86g15nmcl1Fsjab9IGee-11" style="edgeStyle=orthogonalEdgeStyle;curved=0;rounded=1;sketch=0;orthogonalLoop=1;jettySize=auto;html=1;exitX=0.5;exitY=0.5;exitDx=0;exitDy=0;exitPerimeter=0;" edge="1" parent="1" source="86g15nmcl1Fsjab9IGee-1">
          <mxGeometry relative="1" as="geometry">
            <mxPoint x="440" y="140" as="targetPoint" />
          </mxGeometry>
        </mxCell>
        <mxCell id="86g15nmcl1Fsjab9IGee-1" value="Actor" style="shape=umlActor;verticalLabelPosition=bottom;verticalAlign=top;html=1;outlineConnect=0;rounded=0;sketch=0;" vertex="1" parent="1">
          <mxGeometry x="294" y="40" width="30" height="60" as="geometry" />
        </mxCell>
        <mxCell id="86g15nmcl1Fsjab9IGee-2" value="&lt;font style=&quot;font-size: 16px&quot;&gt;create -e /order-service config-data&lt;/font&gt;" style="rounded=1;whiteSpace=wrap;html=1;sketch=0;" vertex="1" parent="1">
          <mxGeometry x="220" y="150" width="450" height="50" as="geometry" />
        </mxCell>
        <mxCell id="86g15nmcl1Fsjab9IGee-3" value="&lt;font style=&quot;font-size: 13px&quot;&gt;&lt;br&gt;&lt;/font&gt;" style="ellipse;whiteSpace=wrap;html=1;rounded=0;sketch=0;" vertex="1" parent="1">
          <mxGeometry x="230" y="260" width="90" height="60" as="geometry" />
        </mxCell>
        <mxCell id="86g15nmcl1Fsjab9IGee-4" value="" style="ellipse;whiteSpace=wrap;html=1;rounded=0;sketch=0;" vertex="1" parent="1">
          <mxGeometry x="350" y="260" width="90" height="60" as="geometry" />
        </mxCell>
        <mxCell id="86g15nmcl1Fsjab9IGee-5" value="" style="ellipse;whiteSpace=wrap;html=1;rounded=0;sketch=0;" vertex="1" parent="1">
          <mxGeometry x="460" y="260" width="90" height="60" as="geometry" />
        </mxCell>
        <mxCell id="86g15nmcl1Fsjab9IGee-13" value="update" style="text;html=1;strokeColor=none;fillColor=none;align=center;verticalAlign=middle;whiteSpace=wrap;rounded=0;sketch=0;fontSize=15;" vertex="1" parent="1">
          <mxGeometry x="370" y="50" width="40" height="20" as="geometry" />
        </mxCell>
        <mxCell id="86g15nmcl1Fsjab9IGee-15" value="order-service" style="text;html=1;strokeColor=none;fillColor=none;align=center;verticalAlign=middle;whiteSpace=wrap;rounded=0;sketch=0;fontSize=15;" vertex="1" parent="1">
          <mxGeometry x="230" y="285" width="90" height="10" as="geometry" />
        </mxCell>
        <mxCell id="86g15nmcl1Fsjab9IGee-16" value="order-service" style="text;html=1;strokeColor=none;fillColor=none;align=center;verticalAlign=middle;whiteSpace=wrap;rounded=0;sketch=0;fontSize=15;" vertex="1" parent="1">
          <mxGeometry x="345" y="290" width="90" height="10" as="geometry" />
        </mxCell>
        <mxCell id="86g15nmcl1Fsjab9IGee-17" value="order-service" style="text;html=1;strokeColor=none;fillColor=none;align=center;verticalAlign=middle;whiteSpace=wrap;rounded=0;sketch=0;fontSize=15;" vertex="1" parent="1">
          <mxGeometry x="470" y="290" width="90" height="10" as="geometry" />
        </mxCell>
        <mxCell id="86g15nmcl1Fsjab9IGee-20" value="" style="endArrow=classic;html=1;fontSize=15;entryX=0.352;entryY=0.98;entryDx=0;entryDy=0;entryPerimeter=0;exitX=0.5;exitY=0;exitDx=0;exitDy=0;" edge="1" parent="1" source="86g15nmcl1Fsjab9IGee-3" target="86g15nmcl1Fsjab9IGee-2">
          <mxGeometry width="50" height="50" relative="1" as="geometry">
            <mxPoint x="370" y="280" as="sourcePoint" />
            <mxPoint x="420" y="230" as="targetPoint" />
          </mxGeometry>
        </mxCell>
        <mxCell id="86g15nmcl1Fsjab9IGee-21" value="" style="endArrow=classic;html=1;fontSize=15;exitX=1;exitY=0;exitDx=0;exitDy=0;" edge="1" parent="1" source="86g15nmcl1Fsjab9IGee-4" target="86g15nmcl1Fsjab9IGee-2">
          <mxGeometry width="50" height="50" relative="1" as="geometry">
            <mxPoint x="370" y="280" as="sourcePoint" />
            <mxPoint x="420" y="230" as="targetPoint" />
          </mxGeometry>
        </mxCell>
        <mxCell id="86g15nmcl1Fsjab9IGee-23" value="" style="endArrow=classic;html=1;fontSize=15;entryX=0.719;entryY=0.98;entryDx=0;entryDy=0;entryPerimeter=0;" edge="1" parent="1" source="86g15nmcl1Fsjab9IGee-5" target="86g15nmcl1Fsjab9IGee-2">
          <mxGeometry width="50" height="50" relative="1" as="geometry">
            <mxPoint x="370" y="280" as="sourcePoint" />
            <mxPoint x="420" y="230" as="targetPoint" />
          </mxGeometry>
        </mxCell>
      </root>
    </mxGraphModel>
  </diagram>
</mxfile>
